<svg xmlns="http://www.w3.org/2000/svg" width="70" height="70" fill="none" class="not-desktop"><path fill="transparent" d="M35.132 67.632c17.949 0 32.5-14.551 32.5-32.5 0-17.95-14.551-32.5-32.5-32.5-17.95 0-32.5 14.55-32.5 32.5 0 17.949 14.55 32.5 32.5 32.5Z"/><path fill="#fff" fill-rule="evenodd" d="M35 70C15.67 70 0 54.33 0 35S15.67 0 35 0s35 15.67 35 35-15.67 35-35 35Zm0-5c16.569 0 30-13.431 30-30C65 18.431 51.57 5 35 5 18.431 5 5 18.43 5 35 5 51.569 18.43 65 35 65Zm4.474-36.842v30h-8.948v-30H17.895V19.21h34.21v8.948H39.474Z" clip-rule="evenodd"/></svg>